<?xml version="1.0" encoding="UTF-8"?>
<svg xmlns="http://www.w3.org/2000/svg" height="100" width="400" version="1.1" xmlns:xlink="http://www.w3.org/1999/xlink">
	<defs>
		<!-- Shaker outline: -->
		<path id="outline" d="m14,0c-8,0-14,8-14,20,0,20,11,20,11,36,0,8-2,40-2,44,0,4,1,8,5,8s5-4,5-8c0-4-2-36-2-44,0-16,11-16,11-36,0-12-6-20-14-20z"/>

		<!-- Shaker outline as a clip path: -->
		<clipPath id="outlineClip">
			<use xlink:href="#outline"/>
		</clipPath>

		<!-- Color gradients: -->
		<linearGradient x1="0" x2="28" y1="0" y2="0" gradientUnits="userSpaceOnUse" id="gradRed">
			<stop stop-color="#ff1414" offset="0"/>
			<stop stop-color="#b10000" offset="1"/>
		</linearGradient>
		<linearGradient x1="0" x2="28" y1="0" y2="0" gradientUnits="userSpaceOnUse" id="gradGreen">
			<stop stop-color="#68b933" offset="0"/>
			<stop stop-color="#355e1a" offset="1"/>
		</linearGradient>
		<linearGradient x1="0" x2="28" y1="0" y2="0" gradientUnits="userSpaceOnUse" id="gradYellow">
			<stop stop-color="#ffd428" offset="0"/>
			<stop stop-color="#bc9700" offset="1"/>
		</linearGradient>
		<linearGradient x1="0" x2="28" y1="0" y2="0" gradientUnits="userSpaceOnUse" id="gradBlue">
			<stop stop-color="#497ecd" offset="0"/>
			<stop stop-color="#152b4d" offset="1"/>
		</linearGradient>
		<linearGradient x1="8" x2="20" y1="0" y2="0" gradientUnits="userSpaceOnUse" id="gradBrown">
			<stop stop-color="#efbb91" offset="0"/>
			<stop stop-color="#a76734" offset="1"/>
		</linearGradient>

		<!-- Define a full single shaker: -->
		<g id="shaker">
			<!-- Brown background: -->
			<use xlink:href="#outline" style="fill:url(#gradBrown)"/>

			<!-- Colored bands, clipped by outline: -->
			<g clip-path="url(#outlineClip)">
				<rect x="0" y="0"  width="28" height="13" style="fill:url(#gradRed)"/>
				<rect x="0" y="12" width="28" height="13" style="fill:url(#gradGreen)"/>
				<rect x="0" y="24" width="28" height="13" style="fill:url(#gradYellow)"/>
				<rect x="0" y="36" width="28" height="12" style="fill:url(#gradBlue)"/>
			</g>

			<!-- Inner black stroke: -->
			<path d="M10,48,18,48" style="fill:none;stroke:#000000;stroke-width:0.8"/>

			<!-- Black outline: -->
			<use xlink:href="#outline" style="fill:none;stroke:#000000;stroke-width:1"/>
		</g>

		<!-- Textual logo: -->

		<!-- Text arrow -->
		<path id="textarrow" d="M0,-1.1,3,0,0,1.1z"/>

		<!-- The 1.333.... stroke width is to snap to pixel boundaries at 6x enlargement -->
		<g id="textlogo">
			<g style="fill:none;stroke:#FF1313;stroke-width:1.33333333333333333333;stroke-miterlimit:4;stroke-linecap:square">
				<!-- S --><path d="M1,9c3,1,5,0,5-1,0-2-3-1-3-3,0-1,2-3,8-3"/>
				<!-- a --><path d="M11,5c-3,0-3,2-3,2,0,2,3,2,3,2z"/>
				<!-- m --><path d="M13,9,14,5.6,15.6,8,17,4.6,18,9"/>
				<!-- b --><path d="m20,2,0,7c3,0,3-2,3-2,0-2-2.6-2-2.6-2"/>
				<!-- a --><path d="m28,5c-3,0-3,2-3,2,0,2,3,2,3,2z"/>
				<!-- Kerning: DAV 1px to the right -->
				<g transform="translate(0.166666666666, 0)">
					<!-- D --><path d="m30,3,0,6c3,0,3-3,3-3,0-3-3-3-3-3z"/>
					<!-- A --><path d="m35,8,2,0m-3,1,2-5,2,5"/>
					<!-- V --><path d="m38,3,2,5,3-7"/>
				</g>
			</g>
			<g style="fill:#FF1313">
				<use xlink:href="#textarrow" transform="translate(11,2)"/>
				<use xlink:href="#textarrow" transform="scale(-1,1) translate(-1,9) rotate(-18.43494882520915579915)"/><!-- atan(1/3) -->
			</g>
		</g>
	</defs>

	<g id="shakers" transform="scale(1.2) translate(-10,-2)">
		<!-- First shaker, rotated 45 degrees clockwise: -->
		<use xlink:href="#shaker" transform="translate(90,-3) rotate(45)"/>

		<!-- Second shaker, rotated 45 degrees counterclockwise, mirrored: -->
		<use xlink:href="#shaker" transform="translate(25,-3) scale(-1,1) rotate(45)"/>
	</g>

	<!-- Text logo -->
	<use xlink:href="#textlogo" transform="translate(135,20) scale(6,6)"/>
</svg>
